{
  "accessors": [
    {
      "bufferView": 1,
      "componentType": 5126,
      "count": 65532,
      "max": [
        0.4903898239135742,
        1.7806274890899658,
        0.13933569192886353
      ],
      "min": [
        -0.48352035880088806,
        -0.004452629014849663,
        -0.17380070686340332
      ],
      "type": "VEC3"
    },
    {
      "bufferView": 1,
      "byteOffset": 786384,
      "componentType": 5126,
      "count": 65532,
      "max": [
        0.999992311000824,
        0.999711275100708,
        0.9999936819076538
      ],
      "min": [
        -0.9999843239784241,
        -0.9999992251396179,
        -0.9999840259552002
      ],
      "type": "VEC3"
    },
    {
      "bufferView": 2,
      "componentType": 5126,
      "count": 65532,
      "max": [
        0.8980392217636108,
        0.7568627595901489,
        0.686274528503418,
        1.0
      ],
      "min": [
        0.6431372761726379,
        0.23137255012989044,
        0.16078431904315948,
        1.0
      ],
      "type": "VEC4"
    },
    {
      "bufferView": 0,
      "componentType": 5125,
      "count": 350025,
      "type": "SCALAR"
    },
    {
      "bufferView": 1,
      "byteOffset": 1572768,
      "componentType": 5126,
      "count": 65532,
      "max": [
        0.4910319149494171,
        1.7325721979141235,
        0.13438761234283447
      ],
      "min": [
        -0.4910309612751007,
        -0.004451347049325705,
        -0.17379997670650482
      ],
      "type": "VEC3"
    },
    {
      "bufferView": 1,
      "byteOffset": 2359152,
      "componentType": 5126,
      "count": 65532,
      "max": [
        0.9999980330467224,
        0.9999669194221497,
        0.9999993443489075
      ],
      "min": [
        -0.999998152256012,
        -0.9999992251396179,
        -0.9999843835830688
      ],
      "type": "VEC3"
    },
    {
      "bufferView": 2,
      "byteOffset": 1048512,
      "componentType": 5126,
      "count": 65532,
      "max": [
        0.8980392217636108,
        0.7568627595901489,
        0.686274528503418,
        1.0
      ],
      "min": [
        0.6431372761726379,
        0.22745098173618317,
        0.1568627506494522,
        1.0
      ],
      "type": "VEC4"
    },
    {
      "bufferView": 0,
      "byteOffset": 1400100,
      "componentType": 5125,
      "count": 348855,
      "type": "SCALAR"
    },
    {
      "bufferView": 1,
      "byteOffset": 3145536,
      "componentType": 5126,
      "count": 48512,
      "max": [
        0.4910319149494171,
        1.7806274890899658,
        0.13933569192886353
      ],
      "min": [
        -0.4909662902355194,
        -0.004452629014849663,
        -0.17380070686340332
      ],
      "type": "VEC3"
    },
    {
      "bufferView": 1,
      "byteOffset": 3727680,
      "componentType": 5126,
      "count": 48512,
      "max": [
        0.999992311000824,
        0.9999668598175049,
        0.9999960660934448
      ],
      "min": [
        -0.9999823570251465,
        -0.9999992251396179,
        -0.999991238117218
      ],
      "type": "VEC3"
    },
    {
      "bufferView": 2,
      "byteOffset": 2097024,
      "componentType": 5126,
      "count": 48512,
      "max": [
        0.8980392217636108,
        0.7568627595901489,
        0.686274528503418,
        1.0
      ],
      "min": [
        0.6431372761726379,
        0.22745098173618317,
        0.1568627506494522,
        1.0
      ],
      "type": "VEC4"
    },
    {
      "bufferView": 0,
      "byteOffset": 2795520,
      "componentType": 5125,
      "count": 201108,
      "type": "SCALAR"
    }
  ],
  "asset": {
    "extras": {
      "author": "HEPL3D (https://sketchfab.com/HEPL3D)",
      "license": "CC-BY-4.0 (http://creativecommons.org/licenses/by/4.0/)",
      "source": "https://sketchfab.com/3d-models/2283-chloe-franck-anatomy-580fc5c666e146c7b3af426bdf25cc96",
      "title": "2283 - Chloe Franck - Anatomy"
    },
    "generator": "Sketchfab-12.68.0",
    "version": "2.0"
  },
  "bufferViews": [
    {
      "buffer": 0,
      "byteLength": 3599952,
      "name": "floatBufferViews",
      "target": 34963
    },
    {
      "buffer": 0,
      "byteLength": 4309824,
      "byteOffset": 3599952,
      "byteStride": 12,
      "name": "floatBufferViews",
      "target": 34962
    },
    {
      "buffer": 0,
      "byteLength": 2873216,
      "byteOffset": 7909776,
      "byteStride": 16,
      "name": "floatBufferViews",
      "target": 34962
    }
  ],
  "buffers": [
    {
      "byteLength": 10782992,
      "uri": "scene.bin"
    }
  ],
  "materials": [
    {
      "doubleSided": true,
      "name": "150_triangles",
      "pbrMetallicRoughness": {
        "baseColorFactor": [
          0.5,
          0.5,
          0.5,
          1.0
        ],
        "metallicFactor": 0.03830030487804878,
        "roughnessFactor": 0.37633384146341464
      }
    }
  ],
  "meshes": [
    {
      "name": "150_triangles_150_triangles_0",
      "primitives": [
        {
          "attributes": {
            "COLOR_0": 2,
            "NORMAL": 1,
            "POSITION": 0
          },
          "indices": 3,
          "material": 0,
          "mode": 4
        }
      ]
    },
    {
      "name": "150_triangles_150_triangles_0",
      "primitives": [
        {
          "attributes": {
            "COLOR_0": 6,
            "NORMAL": 5,
            "POSITION": 4
          },
          "indices": 7,
          "material": 0,
          "mode": 4
        }
      ]
    },
    {
      "name": "150_triangles_150_triangles_0",
      "primitives": [
        {
          "attributes": {
            "COLOR_0": 10,
            "NORMAL": 9,
            "POSITION": 8
          },
          "indices": 11,
          "material": 0,
          "mode": 4
        }
      ]
    }
  ],
  "nodes": [
    {
      "children": [
        1
      ],
      "matrix": [
        1.0,
        0.0,
        0.0,
        0.0,
        0.0,
        2.220446049250313e-16,
        -1.0,
        0.0,
        0.0,
        1.0,
        2.220446049250313e-16,
        0.0,
        0.0,
        0.0,
        0.0,
        1.0
      ],
      "name": "Sketchfab_model"
    },
    {
      "children": [
        2
      ],
      "matrix": [
        1.0,
        0.0,
        0.0,
        0.0,
        0.0,
        0.0,
        1.0,
        0.0,
        0.0,
        -1.0,
        0.0,
        0.0,
        0.0,
        0.0,
        0.0,
        1.0
      ],
      "name": "31fc24f3f74845328dfda37649a4ca08.fbx"
    },
    {
      "children": [
        3
      ],
      "name": "RootNode"
    },
    {
      "children": [
        4,
        5,
        6
      ],
      "name": "150_triangles"
    },
    {
      "mesh": 0,
      "name": "150_triangles_150_triangles_0"
    },
    {
      "mesh": 1,
      "name": "150_triangles_150_triangles_0"
    },
    {
      "mesh": 2,
      "name": "150_triangles_150_triangles_0"
    }
  ],
  "scene": 0,
  "scenes": [
    {
      "name": "Sketchfab_Scene",
      "nodes": [
        0
      ]
    }
  ]
}
